<mxfile host="app.diagrams.net" agent="Mozilla/5.0 (Windows NT 10.0; Win64; x64) AppleWebKit/537.36 (KHTML, like Gecko) Chrome/130.0.0.0 Safari/537.36" version="24.8.3" pages="2">
  <diagram name="Страница — 1" id="WGMi7aN2M8gCODtiAXmC">
    <mxGraphModel dx="840" dy="526" grid="1" gridSize="10" guides="1" tooltips="1" connect="1" arrows="1" fold="1" page="1" pageScale="1" pageWidth="827" pageHeight="1169" math="0" shadow="0">
      <root>
        <mxCell id="0" />
        <mxCell id="1" parent="0" />
        <mxCell id="nPkZhUvbyxET6VQS_U0p-1" value="" style="rounded=1;whiteSpace=wrap;html=1;" vertex="1" parent="1">
          <mxGeometry x="120" y="110" width="130" height="250" as="geometry" />
        </mxCell>
        <mxCell id="nPkZhUvbyxET6VQS_U0p-3" value="1. address_id &amp;gt; 0.&lt;div&gt;2. user_id &amp;gt; 0.&amp;nbsp; &amp;nbsp; &amp;nbsp;&amp;nbsp;&lt;/div&gt;" style="rounded=1;whiteSpace=wrap;html=1;" vertex="1" parent="1">
          <mxGeometry x="360" y="173.75" width="210" height="162.5" as="geometry" />
        </mxCell>
        <mxCell id="nPkZhUvbyxET6VQS_U0p-5" value="" style="endArrow=classic;startArrow=classic;html=1;rounded=0;entryX=0;entryY=0.375;entryDx=0;entryDy=0;entryPerimeter=0;exitX=0.992;exitY=0.43;exitDx=0;exitDy=0;exitPerimeter=0;" edge="1" parent="1">
          <mxGeometry width="50" height="50" relative="1" as="geometry">
            <mxPoint x="248.96000000000004" y="254.58000000000004" as="sourcePoint" />
            <mxPoint x="360" y="254.5675" as="targetPoint" />
            <Array as="points" />
          </mxGeometry>
        </mxCell>
        <mxCell id="nPkZhUvbyxET6VQS_U0p-6" value="1. addres_id.&lt;div&gt;2. count_pb.&amp;nbsp;&lt;/div&gt;&lt;div&gt;3. user_id.&amp;nbsp; &amp;nbsp;&amp;nbsp;&lt;/div&gt;" style="shape=cylinder3;whiteSpace=wrap;html=1;boundedLbl=1;backgroundOutline=1;size=15;" vertex="1" parent="1">
          <mxGeometry x="670" y="170" width="130" height="166.25" as="geometry" />
        </mxCell>
        <mxCell id="nPkZhUvbyxET6VQS_U0p-7" value="" style="endArrow=classic;startArrow=classic;html=1;rounded=0;entryX=0;entryY=0.375;entryDx=0;entryDy=0;entryPerimeter=0;" edge="1" parent="1">
          <mxGeometry width="50" height="50" relative="1" as="geometry">
            <mxPoint x="570" y="255" as="sourcePoint" />
            <mxPoint x="670" y="254.5675" as="targetPoint" />
            <Array as="points" />
          </mxGeometry>
        </mxCell>
        <mxCell id="nPkZhUvbyxET6VQS_U0p-8" value="User story: Я, как пользователь приложения БериЗаряд, хочу иметь возможность знать количество доступных пауэрбанков в постамате, для того чтобы не приходить к постамату если он пустой" style="text;html=1;align=center;verticalAlign=middle;whiteSpace=wrap;rounded=0;" vertex="1" parent="1">
          <mxGeometry y="10" width="820" height="30" as="geometry" />
        </mxCell>
        <mxCell id="nPkZhUvbyxET6VQS_U0p-9" value="&lt;b&gt;A&lt;/b&gt;&amp;nbsp;&lt;div&gt;Мобильное приложение&lt;/div&gt;" style="text;html=1;align=center;verticalAlign=middle;whiteSpace=wrap;rounded=0;" vertex="1" parent="1">
          <mxGeometry x="115" y="60" width="140" height="30" as="geometry" />
        </mxCell>
        <mxCell id="nPkZhUvbyxET6VQS_U0p-10" value="&lt;b&gt;B&lt;/b&gt;&amp;nbsp;&lt;div&gt;Сервер&lt;/div&gt;" style="text;html=1;align=center;verticalAlign=middle;whiteSpace=wrap;rounded=0;" vertex="1" parent="1">
          <mxGeometry x="440" y="55" width="50" height="40" as="geometry" />
        </mxCell>
        <mxCell id="nPkZhUvbyxET6VQS_U0p-11" value="&lt;b&gt;С&lt;/b&gt;&lt;br&gt;&lt;div&gt;База данных PG&lt;/div&gt;" style="text;html=1;align=center;verticalAlign=middle;whiteSpace=wrap;rounded=0;" vertex="1" parent="1">
          <mxGeometry x="685" y="60" width="100" height="30" as="geometry" />
        </mxCell>
        <mxCell id="nPkZhUvbyxET6VQS_U0p-12" value="https" style="text;html=1;align=center;verticalAlign=middle;whiteSpace=wrap;rounded=0;" vertex="1" parent="1">
          <mxGeometry x="270" y="220" width="60" height="30" as="geometry" />
        </mxCell>
        <mxCell id="nPkZhUvbyxET6VQS_U0p-14" value="ODBC" style="text;html=1;align=center;verticalAlign=middle;whiteSpace=wrap;rounded=0;" vertex="1" parent="1">
          <mxGeometry x="590" y="220" width="60" height="30" as="geometry" />
        </mxCell>
      </root>
    </mxGraphModel>
  </diagram>
  <diagram id="anlyr0HJ7M515Zqs3XUz" name="Страница — 2">
    <mxGraphModel dx="808" dy="506" grid="1" gridSize="10" guides="1" tooltips="1" connect="1" arrows="1" fold="1" page="1" pageScale="1" pageWidth="827" pageHeight="1169" math="0" shadow="0">
      <root>
        <mxCell id="0" />
        <mxCell id="1" parent="0" />
        <mxCell id="aL5-4rC5Tv-gBn5hk9JL-64" value="" style="shape=table;startSize=0;container=1;collapsible=0;childLayout=tableLayout;" vertex="1" parent="1">
          <mxGeometry y="30" width="470" height="220" as="geometry" />
        </mxCell>
        <mxCell id="aL5-4rC5Tv-gBn5hk9JL-65" value="" style="shape=tableRow;horizontal=0;startSize=0;swimlaneHead=0;swimlaneBody=0;strokeColor=inherit;top=0;left=0;bottom=0;right=0;collapsible=0;dropTarget=0;fillColor=none;points=[[0,0.5],[1,0.5]];portConstraint=eastwest;" vertex="1" parent="aL5-4rC5Tv-gBn5hk9JL-64">
          <mxGeometry width="470" height="40" as="geometry" />
        </mxCell>
        <mxCell id="aL5-4rC5Tv-gBn5hk9JL-66" value="Родительская сущность" style="shape=partialRectangle;html=1;whiteSpace=wrap;connectable=0;strokeColor=inherit;overflow=hidden;fillColor=none;top=0;left=0;bottom=0;right=0;pointerEvents=1;" vertex="1" parent="aL5-4rC5Tv-gBn5hk9JL-65">
          <mxGeometry width="120" height="40" as="geometry">
            <mxRectangle width="120" height="40" as="alternateBounds" />
          </mxGeometry>
        </mxCell>
        <mxCell id="aL5-4rC5Tv-gBn5hk9JL-67" value="Атрибут" style="shape=partialRectangle;html=1;whiteSpace=wrap;connectable=0;strokeColor=inherit;overflow=hidden;fillColor=none;top=0;left=0;bottom=0;right=0;pointerEvents=1;" vertex="1" parent="aL5-4rC5Tv-gBn5hk9JL-65">
          <mxGeometry x="120" width="116" height="40" as="geometry">
            <mxRectangle width="116" height="40" as="alternateBounds" />
          </mxGeometry>
        </mxCell>
        <mxCell id="aL5-4rC5Tv-gBn5hk9JL-68" value="Описание" style="shape=partialRectangle;html=1;whiteSpace=wrap;connectable=0;strokeColor=inherit;overflow=hidden;fillColor=none;top=0;left=0;bottom=0;right=0;pointerEvents=1;" vertex="1" parent="aL5-4rC5Tv-gBn5hk9JL-65">
          <mxGeometry x="236" width="234" height="40" as="geometry">
            <mxRectangle width="234" height="40" as="alternateBounds" />
          </mxGeometry>
        </mxCell>
        <mxCell id="aL5-4rC5Tv-gBn5hk9JL-69" value="" style="shape=tableRow;horizontal=0;startSize=0;swimlaneHead=0;swimlaneBody=0;strokeColor=inherit;top=0;left=0;bottom=0;right=0;collapsible=0;dropTarget=0;fillColor=none;points=[[0,0.5],[1,0.5]];portConstraint=eastwest;" vertex="1" parent="aL5-4rC5Tv-gBn5hk9JL-64">
          <mxGeometry y="40" width="470" height="60" as="geometry" />
        </mxCell>
        <mxCell id="aL5-4rC5Tv-gBn5hk9JL-70" value="Postamat" style="shape=partialRectangle;html=1;whiteSpace=wrap;connectable=0;strokeColor=inherit;overflow=hidden;fillColor=none;top=0;left=0;bottom=0;right=0;pointerEvents=1;" vertex="1" parent="aL5-4rC5Tv-gBn5hk9JL-69">
          <mxGeometry width="120" height="60" as="geometry">
            <mxRectangle width="120" height="60" as="alternateBounds" />
          </mxGeometry>
        </mxCell>
        <mxCell id="aL5-4rC5Tv-gBn5hk9JL-71" value="" style="shape=partialRectangle;html=1;whiteSpace=wrap;connectable=0;strokeColor=inherit;overflow=hidden;fillColor=none;top=0;left=0;bottom=0;right=0;pointerEvents=1;" vertex="1" parent="aL5-4rC5Tv-gBn5hk9JL-69">
          <mxGeometry x="120" width="116" height="60" as="geometry">
            <mxRectangle width="116" height="60" as="alternateBounds" />
          </mxGeometry>
        </mxCell>
        <mxCell id="aL5-4rC5Tv-gBn5hk9JL-72" value="Объект постамата, который имеет &lt;br/&gt;атрибуты и ссылки на другие объекты" style="shape=partialRectangle;html=1;whiteSpace=wrap;connectable=0;strokeColor=inherit;overflow=hidden;fillColor=none;top=0;left=0;bottom=0;right=0;pointerEvents=1;" vertex="1" parent="aL5-4rC5Tv-gBn5hk9JL-69">
          <mxGeometry x="236" width="234" height="60" as="geometry">
            <mxRectangle width="234" height="60" as="alternateBounds" />
          </mxGeometry>
        </mxCell>
        <mxCell id="aL5-4rC5Tv-gBn5hk9JL-73" value="" style="shape=tableRow;horizontal=0;startSize=0;swimlaneHead=0;swimlaneBody=0;strokeColor=inherit;top=0;left=0;bottom=0;right=0;collapsible=0;dropTarget=0;fillColor=none;points=[[0,0.5],[1,0.5]];portConstraint=eastwest;" vertex="1" parent="aL5-4rC5Tv-gBn5hk9JL-64">
          <mxGeometry y="100" width="470" height="40" as="geometry" />
        </mxCell>
        <mxCell id="aL5-4rC5Tv-gBn5hk9JL-74" value="" style="shape=partialRectangle;html=1;whiteSpace=wrap;connectable=0;strokeColor=inherit;overflow=hidden;fillColor=none;top=0;left=0;bottom=0;right=0;pointerEvents=1;" vertex="1" parent="aL5-4rC5Tv-gBn5hk9JL-73">
          <mxGeometry width="120" height="40" as="geometry">
            <mxRectangle width="120" height="40" as="alternateBounds" />
          </mxGeometry>
        </mxCell>
        <mxCell id="aL5-4rC5Tv-gBn5hk9JL-75" value="count_power" style="shape=partialRectangle;html=1;whiteSpace=wrap;connectable=0;strokeColor=inherit;overflow=hidden;fillColor=none;top=0;left=0;bottom=0;right=0;pointerEvents=1;" vertex="1" parent="aL5-4rC5Tv-gBn5hk9JL-73">
          <mxGeometry x="120" width="116" height="40" as="geometry">
            <mxRectangle width="116" height="40" as="alternateBounds" />
          </mxGeometry>
        </mxCell>
        <mxCell id="aL5-4rC5Tv-gBn5hk9JL-76" value="Количество пауэрбанков" style="shape=partialRectangle;html=1;whiteSpace=wrap;connectable=0;strokeColor=inherit;overflow=hidden;fillColor=none;top=0;left=0;bottom=0;right=0;pointerEvents=1;" vertex="1" parent="aL5-4rC5Tv-gBn5hk9JL-73">
          <mxGeometry x="236" width="234" height="40" as="geometry">
            <mxRectangle width="234" height="40" as="alternateBounds" />
          </mxGeometry>
        </mxCell>
        <mxCell id="aL5-4rC5Tv-gBn5hk9JL-77" value="" style="shape=tableRow;horizontal=0;startSize=0;swimlaneHead=0;swimlaneBody=0;strokeColor=inherit;top=0;left=0;bottom=0;right=0;collapsible=0;dropTarget=0;fillColor=none;points=[[0,0.5],[1,0.5]];portConstraint=eastwest;" vertex="1" parent="aL5-4rC5Tv-gBn5hk9JL-64">
          <mxGeometry y="140" width="470" height="40" as="geometry" />
        </mxCell>
        <mxCell id="aL5-4rC5Tv-gBn5hk9JL-78" value="" style="shape=partialRectangle;html=1;whiteSpace=wrap;connectable=0;strokeColor=inherit;overflow=hidden;fillColor=none;top=0;left=0;bottom=0;right=0;pointerEvents=1;" vertex="1" parent="aL5-4rC5Tv-gBn5hk9JL-77">
          <mxGeometry width="120" height="40" as="geometry">
            <mxRectangle width="120" height="40" as="alternateBounds" />
          </mxGeometry>
        </mxCell>
        <mxCell id="aL5-4rC5Tv-gBn5hk9JL-79" value="numder_postamat" style="shape=partialRectangle;html=1;whiteSpace=wrap;connectable=0;strokeColor=inherit;overflow=hidden;fillColor=none;top=0;left=0;bottom=0;right=0;pointerEvents=1;" vertex="1" parent="aL5-4rC5Tv-gBn5hk9JL-77">
          <mxGeometry x="120" width="116" height="40" as="geometry">
            <mxRectangle width="116" height="40" as="alternateBounds" />
          </mxGeometry>
        </mxCell>
        <mxCell id="aL5-4rC5Tv-gBn5hk9JL-80" value="номер постамата" style="shape=partialRectangle;html=1;whiteSpace=wrap;connectable=0;strokeColor=inherit;overflow=hidden;fillColor=none;top=0;left=0;bottom=0;right=0;pointerEvents=1;" vertex="1" parent="aL5-4rC5Tv-gBn5hk9JL-77">
          <mxGeometry x="236" width="234" height="40" as="geometry">
            <mxRectangle width="234" height="40" as="alternateBounds" />
          </mxGeometry>
        </mxCell>
        <mxCell id="aL5-4rC5Tv-gBn5hk9JL-85" style="shape=tableRow;horizontal=0;startSize=0;swimlaneHead=0;swimlaneBody=0;strokeColor=inherit;top=0;left=0;bottom=0;right=0;collapsible=0;dropTarget=0;fillColor=none;points=[[0,0.5],[1,0.5]];portConstraint=eastwest;" vertex="1" parent="aL5-4rC5Tv-gBn5hk9JL-64">
          <mxGeometry y="180" width="470" height="40" as="geometry" />
        </mxCell>
        <mxCell id="aL5-4rC5Tv-gBn5hk9JL-86" style="shape=partialRectangle;html=1;whiteSpace=wrap;connectable=0;strokeColor=inherit;overflow=hidden;fillColor=none;top=0;left=0;bottom=0;right=0;pointerEvents=1;" vertex="1" parent="aL5-4rC5Tv-gBn5hk9JL-85">
          <mxGeometry width="120" height="40" as="geometry">
            <mxRectangle width="120" height="40" as="alternateBounds" />
          </mxGeometry>
        </mxCell>
        <mxCell id="aL5-4rC5Tv-gBn5hk9JL-87" value="Address_postamat" style="shape=partialRectangle;html=1;whiteSpace=wrap;connectable=0;strokeColor=inherit;overflow=hidden;fillColor=none;top=0;left=0;bottom=0;right=0;pointerEvents=1;" vertex="1" parent="aL5-4rC5Tv-gBn5hk9JL-85">
          <mxGeometry x="120" width="116" height="40" as="geometry">
            <mxRectangle width="116" height="40" as="alternateBounds" />
          </mxGeometry>
        </mxCell>
        <mxCell id="aL5-4rC5Tv-gBn5hk9JL-88" value="адрес постамата(ссылка на сущность Address_postamat)" style="shape=partialRectangle;html=1;whiteSpace=wrap;connectable=0;strokeColor=inherit;overflow=hidden;fillColor=none;top=0;left=0;bottom=0;right=0;pointerEvents=1;" vertex="1" parent="aL5-4rC5Tv-gBn5hk9JL-85">
          <mxGeometry x="236" width="234" height="40" as="geometry">
            <mxRectangle width="234" height="40" as="alternateBounds" />
          </mxGeometry>
        </mxCell>
        <mxCell id="aL5-4rC5Tv-gBn5hk9JL-89" value="Родительская сущность - Address_postamat" style="text;html=1;align=center;verticalAlign=middle;whiteSpace=wrap;rounded=0;" vertex="1" parent="1">
          <mxGeometry y="280" width="250" height="30" as="geometry" />
        </mxCell>
        <mxCell id="aL5-4rC5Tv-gBn5hk9JL-90" value="" style="shape=table;startSize=0;container=1;collapsible=0;childLayout=tableLayout;" vertex="1" parent="1">
          <mxGeometry y="310" width="476" height="220" as="geometry" />
        </mxCell>
        <mxCell id="aL5-4rC5Tv-gBn5hk9JL-91" value="" style="shape=tableRow;horizontal=0;startSize=0;swimlaneHead=0;swimlaneBody=0;strokeColor=inherit;top=0;left=0;bottom=0;right=0;collapsible=0;dropTarget=0;fillColor=none;points=[[0,0.5],[1,0.5]];portConstraint=eastwest;" vertex="1" parent="aL5-4rC5Tv-gBn5hk9JL-90">
          <mxGeometry width="476" height="50" as="geometry" />
        </mxCell>
        <mxCell id="aL5-4rC5Tv-gBn5hk9JL-92" value="Дочерняя сущность" style="shape=partialRectangle;html=1;whiteSpace=wrap;connectable=0;strokeColor=inherit;overflow=hidden;fillColor=none;top=0;left=0;bottom=0;right=0;pointerEvents=1;" vertex="1" parent="aL5-4rC5Tv-gBn5hk9JL-91">
          <mxGeometry width="116" height="50" as="geometry">
            <mxRectangle width="116" height="50" as="alternateBounds" />
          </mxGeometry>
        </mxCell>
        <mxCell id="aL5-4rC5Tv-gBn5hk9JL-93" value="Атрибут" style="shape=partialRectangle;html=1;whiteSpace=wrap;connectable=0;strokeColor=inherit;overflow=hidden;fillColor=none;top=0;left=0;bottom=0;right=0;pointerEvents=1;" vertex="1" parent="aL5-4rC5Tv-gBn5hk9JL-91">
          <mxGeometry x="116" width="120" height="50" as="geometry">
            <mxRectangle width="120" height="50" as="alternateBounds" />
          </mxGeometry>
        </mxCell>
        <mxCell id="aL5-4rC5Tv-gBn5hk9JL-94" value="Описание" style="shape=partialRectangle;html=1;whiteSpace=wrap;connectable=0;strokeColor=inherit;overflow=hidden;fillColor=none;top=0;left=0;bottom=0;right=0;pointerEvents=1;" vertex="1" parent="aL5-4rC5Tv-gBn5hk9JL-91">
          <mxGeometry x="236" width="240" height="50" as="geometry">
            <mxRectangle width="240" height="50" as="alternateBounds" />
          </mxGeometry>
        </mxCell>
        <mxCell id="aL5-4rC5Tv-gBn5hk9JL-95" value="" style="shape=tableRow;horizontal=0;startSize=0;swimlaneHead=0;swimlaneBody=0;strokeColor=inherit;top=0;left=0;bottom=0;right=0;collapsible=0;dropTarget=0;fillColor=none;points=[[0,0.5],[1,0.5]];portConstraint=eastwest;" vertex="1" parent="aL5-4rC5Tv-gBn5hk9JL-90">
          <mxGeometry y="50" width="476" height="40" as="geometry" />
        </mxCell>
        <mxCell id="aL5-4rC5Tv-gBn5hk9JL-96" value="Address_postamat" style="shape=partialRectangle;html=1;whiteSpace=wrap;connectable=0;strokeColor=inherit;overflow=hidden;fillColor=none;top=0;left=0;bottom=0;right=0;pointerEvents=1;" vertex="1" parent="aL5-4rC5Tv-gBn5hk9JL-95">
          <mxGeometry width="116" height="40" as="geometry">
            <mxRectangle width="116" height="40" as="alternateBounds" />
          </mxGeometry>
        </mxCell>
        <mxCell id="aL5-4rC5Tv-gBn5hk9JL-97" value="" style="shape=partialRectangle;html=1;whiteSpace=wrap;connectable=0;strokeColor=inherit;overflow=hidden;fillColor=none;top=0;left=0;bottom=0;right=0;pointerEvents=1;" vertex="1" parent="aL5-4rC5Tv-gBn5hk9JL-95">
          <mxGeometry x="116" width="120" height="40" as="geometry">
            <mxRectangle width="120" height="40" as="alternateBounds" />
          </mxGeometry>
        </mxCell>
        <mxCell id="aL5-4rC5Tv-gBn5hk9JL-98" value="Объект адреса постамата" style="shape=partialRectangle;html=1;whiteSpace=wrap;connectable=0;strokeColor=inherit;overflow=hidden;fillColor=none;top=0;left=0;bottom=0;right=0;pointerEvents=1;" vertex="1" parent="aL5-4rC5Tv-gBn5hk9JL-95">
          <mxGeometry x="236" width="240" height="40" as="geometry">
            <mxRectangle width="240" height="40" as="alternateBounds" />
          </mxGeometry>
        </mxCell>
        <mxCell id="aL5-4rC5Tv-gBn5hk9JL-99" value="" style="shape=tableRow;horizontal=0;startSize=0;swimlaneHead=0;swimlaneBody=0;strokeColor=inherit;top=0;left=0;bottom=0;right=0;collapsible=0;dropTarget=0;fillColor=none;points=[[0,0.5],[1,0.5]];portConstraint=eastwest;" vertex="1" parent="aL5-4rC5Tv-gBn5hk9JL-90">
          <mxGeometry y="90" width="476" height="40" as="geometry" />
        </mxCell>
        <mxCell id="aL5-4rC5Tv-gBn5hk9JL-100" value="" style="shape=partialRectangle;html=1;whiteSpace=wrap;connectable=0;strokeColor=inherit;overflow=hidden;fillColor=none;top=0;left=0;bottom=0;right=0;pointerEvents=1;" vertex="1" parent="aL5-4rC5Tv-gBn5hk9JL-99">
          <mxGeometry width="116" height="40" as="geometry">
            <mxRectangle width="116" height="40" as="alternateBounds" />
          </mxGeometry>
        </mxCell>
        <mxCell id="aL5-4rC5Tv-gBn5hk9JL-101" value="Street_name" style="shape=partialRectangle;html=1;whiteSpace=wrap;connectable=0;strokeColor=inherit;overflow=hidden;fillColor=none;top=0;left=0;bottom=0;right=0;pointerEvents=1;" vertex="1" parent="aL5-4rC5Tv-gBn5hk9JL-99">
          <mxGeometry x="116" width="120" height="40" as="geometry">
            <mxRectangle width="120" height="40" as="alternateBounds" />
          </mxGeometry>
        </mxCell>
        <mxCell id="aL5-4rC5Tv-gBn5hk9JL-102" value="Название улицы" style="shape=partialRectangle;html=1;whiteSpace=wrap;connectable=0;strokeColor=inherit;overflow=hidden;fillColor=none;top=0;left=0;bottom=0;right=0;pointerEvents=1;" vertex="1" parent="aL5-4rC5Tv-gBn5hk9JL-99">
          <mxGeometry x="236" width="240" height="40" as="geometry">
            <mxRectangle width="240" height="40" as="alternateBounds" />
          </mxGeometry>
        </mxCell>
        <mxCell id="aL5-4rC5Tv-gBn5hk9JL-103" value="" style="shape=tableRow;horizontal=0;startSize=0;swimlaneHead=0;swimlaneBody=0;strokeColor=inherit;top=0;left=0;bottom=0;right=0;collapsible=0;dropTarget=0;fillColor=none;points=[[0,0.5],[1,0.5]];portConstraint=eastwest;" vertex="1" parent="aL5-4rC5Tv-gBn5hk9JL-90">
          <mxGeometry y="130" width="476" height="40" as="geometry" />
        </mxCell>
        <mxCell id="aL5-4rC5Tv-gBn5hk9JL-104" value="" style="shape=partialRectangle;html=1;whiteSpace=wrap;connectable=0;strokeColor=inherit;overflow=hidden;fillColor=none;top=0;left=0;bottom=0;right=0;pointerEvents=1;" vertex="1" parent="aL5-4rC5Tv-gBn5hk9JL-103">
          <mxGeometry width="116" height="40" as="geometry">
            <mxRectangle width="116" height="40" as="alternateBounds" />
          </mxGeometry>
        </mxCell>
        <mxCell id="aL5-4rC5Tv-gBn5hk9JL-105" value="Index_home" style="shape=partialRectangle;html=1;whiteSpace=wrap;connectable=0;strokeColor=inherit;overflow=hidden;fillColor=none;top=0;left=0;bottom=0;right=0;pointerEvents=1;" vertex="1" parent="aL5-4rC5Tv-gBn5hk9JL-103">
          <mxGeometry x="116" width="120" height="40" as="geometry">
            <mxRectangle width="120" height="40" as="alternateBounds" />
          </mxGeometry>
        </mxCell>
        <mxCell id="aL5-4rC5Tv-gBn5hk9JL-106" value="Номер дома" style="shape=partialRectangle;html=1;whiteSpace=wrap;connectable=0;strokeColor=inherit;overflow=hidden;fillColor=none;top=0;left=0;bottom=0;right=0;pointerEvents=1;" vertex="1" parent="aL5-4rC5Tv-gBn5hk9JL-103">
          <mxGeometry x="236" width="240" height="40" as="geometry">
            <mxRectangle width="240" height="40" as="alternateBounds" />
          </mxGeometry>
        </mxCell>
        <mxCell id="aL5-4rC5Tv-gBn5hk9JL-107" value="" style="shape=tableRow;horizontal=0;startSize=0;swimlaneHead=0;swimlaneBody=0;strokeColor=inherit;top=0;left=0;bottom=0;right=0;collapsible=0;dropTarget=0;fillColor=none;points=[[0,0.5],[1,0.5]];portConstraint=eastwest;" vertex="1" parent="aL5-4rC5Tv-gBn5hk9JL-90">
          <mxGeometry y="170" width="476" height="50" as="geometry" />
        </mxCell>
        <mxCell id="aL5-4rC5Tv-gBn5hk9JL-108" value="" style="shape=partialRectangle;html=1;whiteSpace=wrap;connectable=0;strokeColor=inherit;overflow=hidden;fillColor=none;top=0;left=0;bottom=0;right=0;pointerEvents=1;" vertex="1" parent="aL5-4rC5Tv-gBn5hk9JL-107">
          <mxGeometry width="116" height="50" as="geometry">
            <mxRectangle width="116" height="50" as="alternateBounds" />
          </mxGeometry>
        </mxCell>
        <mxCell id="aL5-4rC5Tv-gBn5hk9JL-109" value="Count_postamat" style="shape=partialRectangle;html=1;whiteSpace=wrap;connectable=0;strokeColor=inherit;overflow=hidden;fillColor=none;top=0;left=0;bottom=0;right=0;pointerEvents=1;" vertex="1" parent="aL5-4rC5Tv-gBn5hk9JL-107">
          <mxGeometry x="116" width="120" height="50" as="geometry">
            <mxRectangle width="120" height="50" as="alternateBounds" />
          </mxGeometry>
        </mxCell>
        <mxCell id="aL5-4rC5Tv-gBn5hk9JL-110" value="ссылка на сущность Postamat" style="shape=partialRectangle;html=1;whiteSpace=wrap;connectable=0;strokeColor=inherit;overflow=hidden;fillColor=none;top=0;left=0;bottom=0;right=0;pointerEvents=1;" vertex="1" parent="aL5-4rC5Tv-gBn5hk9JL-107">
          <mxGeometry x="236" width="240" height="50" as="geometry">
            <mxRectangle width="240" height="50" as="alternateBounds" />
          </mxGeometry>
        </mxCell>
        <mxCell id="aL5-4rC5Tv-gBn5hk9JL-111" value="Родительская сущность -&amp;nbsp;Postamat" style="text;html=1;align=center;verticalAlign=middle;whiteSpace=wrap;rounded=0;" vertex="1" parent="1">
          <mxGeometry width="200" height="30" as="geometry" />
        </mxCell>
      </root>
    </mxGraphModel>
  </diagram>
</mxfile>
